<svg width="200" height="200" viewBox="0 0 200 200" fill="none" xmlns="http://www.w3.org/2000/svg">
<g clip-path="url(#clip0_25_62)">
<g filter="url(#filter0_f_25_62)">
<ellipse cx="106.669" cy="104.994" rx="28.5039" ry="21.5278" transform="rotate(-23.1278 106.669 104.994)" fill="#64CED3" fill-opacity="0.6"/>
</g>
<g style="mix-blend-mode:screen">
<path d="M45.1919 87.5413C44.9965 87.5413 44.8012 87.4371 44.697 87.2547C44.5407 86.9812 44.6318 86.6295 44.9054 86.4732L166.167 16.0762C166.441 15.9199 166.793 16.0111 166.955 16.2846C167.112 16.5582 167.02 16.9099 166.747 17.0662L45.485 87.4631C45.3938 87.5152 45.2961 87.5413 45.1984 87.5413H45.1919Z" fill="#64CED3"/>
</g>
<g style="mix-blend-mode:screen">
<path d="M45.1919 102.853C44.9965 102.853 44.8012 102.749 44.697 102.566C44.5407 102.293 44.6318 101.941 44.9054 101.785L166.167 31.3878C166.441 31.2314 166.793 31.3226 166.955 31.5962C167.112 31.8697 167.02 32.2214 166.747 32.3777L45.485 102.775C45.3938 102.827 45.2961 102.853 45.1984 102.853H45.1919Z" fill="#64CED3"/>
</g>
<g style="mix-blend-mode:screen">
<path d="M45.1919 117.787C44.9965 117.787 44.8012 117.683 44.697 117.5C44.5407 117.227 44.6318 116.875 44.9054 116.719L166.167 46.3218C166.441 46.1655 166.793 46.2567 166.955 46.5302C167.112 46.8038 167.02 47.1555 166.747 47.3118L45.485 117.709C45.3938 117.761 45.2961 117.787 45.1984 117.787H45.1919Z" fill="#64CED3"/>
</g>
<g style="mix-blend-mode:screen">
<path d="M45.1919 133.105C44.9965 133.105 44.8012 133.001 44.697 132.818C44.5407 132.545 44.6318 132.193 44.9054 132.037L166.167 61.64C166.441 61.4836 166.793 61.5748 166.955 61.8484C167.112 62.1219 167.02 62.4736 166.747 62.6299L45.485 133.027C45.3938 133.079 45.2961 133.105 45.1984 133.105H45.1919Z" fill="#64CED3"/>
</g>
<g style="mix-blend-mode:screen">
<path d="M45.1919 147.844C44.9965 147.844 44.8012 147.739 44.697 147.557C44.5407 147.283 44.6318 146.932 44.9054 146.775L166.167 76.3785C166.441 76.2222 166.793 76.3133 166.955 76.5869C167.112 76.8604 167.02 77.2121 166.747 77.3684L45.485 147.765C45.3938 147.817 45.2961 147.844 45.1984 147.844H45.1919Z" fill="#64CED3"/>
</g>
<g style="mix-blend-mode:screen">
<path d="M45.1919 163.162C44.9965 163.162 44.8012 163.057 44.697 162.875C44.5407 162.602 44.6318 162.25 44.9054 162.094L166.167 91.6966C166.441 91.5403 166.793 91.6315 166.955 91.905C167.112 92.1785 167.02 92.5302 166.747 92.6865L45.485 163.083C45.3938 163.136 45.2961 163.162 45.1984 163.162H45.1919Z" fill="#64CED3"/>
</g>
<g style="mix-blend-mode:screen">
<path d="M45.1919 178.284C44.9965 178.284 44.8012 178.18 44.697 177.998C44.5407 177.724 44.6318 177.372 44.9054 177.216L166.167 106.826C166.441 106.669 166.793 106.761 166.955 107.034C167.112 107.308 167.02 107.659 166.747 107.816L45.485 178.206C45.3938 178.258 45.2961 178.284 45.1984 178.284H45.1919Z" fill="#64CED3"/>
</g>
<g style="mix-blend-mode:screen">
<path d="M33.1825 93.9368C33.1825 91.6899 33.9771 90.1073 35.5727 89.189C35.8202 89.0457 36.0351 88.9415 36.211 88.8894V89.6579C36.0351 89.7035 35.8332 89.7882 35.6118 89.9184C35.0777 90.231 34.6739 90.6283 34.4069 91.1103C34.1399 91.5922 33.9901 92.2109 33.9705 92.9469L34.0096 92.9208C34.1203 92.6473 34.2701 92.3933 34.459 92.1653C34.6544 91.9374 34.8823 91.7485 35.1428 91.5922C35.5987 91.3317 35.9504 91.2861 36.2044 91.462C36.4584 91.6378 36.5822 91.996 36.5822 92.5431C36.5822 93.1423 36.4324 93.7089 36.1458 94.2234C35.8527 94.7444 35.4555 95.1482 34.9475 95.4413C34.5893 95.6497 34.2766 95.7279 34.0161 95.6823C33.7491 95.6367 33.5472 95.4673 33.4039 95.1743C33.2606 94.8812 33.189 94.4644 33.189 93.9368H33.1825ZM34.9279 94.6923C35.2015 94.536 35.4164 94.3081 35.5662 94.015C35.716 93.7219 35.7876 93.3898 35.7876 93.012C35.7876 92.6799 35.716 92.4649 35.5792 92.3542C35.4359 92.2435 35.2275 92.2761 34.9475 92.4389C34.7716 92.5366 34.6153 92.6733 34.4655 92.8427C34.3222 93.012 34.205 93.1944 34.1203 93.3898C34.0357 93.5851 33.9901 93.761 33.9901 93.9173C33.9901 94.2885 34.0747 94.549 34.2506 94.6988C34.4264 94.8486 34.6479 94.8486 34.9214 94.6923H34.9279Z" fill="#64CED3"/>
<path d="M40.7307 89.1498C40.7307 90.1463 40.5874 90.9669 40.3139 91.6116C40.0338 92.2564 39.604 92.7449 39.0309 93.077C38.4708 93.3962 38.0539 93.3896 37.7674 93.0575C37.4808 92.7253 37.3375 92.0741 37.3375 91.1102C37.3375 90.0942 37.4743 89.267 37.7543 88.6288C38.0344 87.984 38.4577 87.5021 39.0309 87.1699C39.591 86.8443 40.0143 86.8573 40.3009 87.1895C40.5874 87.5281 40.7307 88.1794 40.7307 89.1498ZM38.1451 90.6412C38.1451 91.4228 38.2168 91.9438 38.3535 92.1978C38.4968 92.4518 38.7182 92.4909 39.0243 92.315C39.3304 92.1392 39.5584 91.8396 39.7017 91.4163C39.845 90.9929 39.9166 90.3938 39.9166 89.6252C39.9166 88.8567 39.845 88.3422 39.7017 88.0752C39.5584 87.8147 39.337 87.7691 39.0243 87.9515C38.7182 88.1273 38.4903 88.4269 38.3535 88.8437C38.2102 89.2605 38.1451 89.8597 38.1451 90.6478V90.6412Z" fill="#64CED3"/>
<path d="M34.8626 106.956C35.3706 106.663 35.7679 106.591 36.061 106.721C36.3541 106.858 36.5039 107.19 36.5039 107.718C36.5039 108.33 36.3345 108.903 36.0024 109.444C35.6702 109.978 35.1948 110.427 34.5761 110.785C34.016 111.111 33.5796 111.261 33.2605 111.235V110.395C33.4429 110.408 33.6578 110.382 33.8988 110.303C34.1397 110.232 34.3612 110.134 34.5631 110.017C34.9278 109.809 35.2013 109.555 35.3902 109.261C35.5791 108.968 35.6767 108.636 35.6767 108.278C35.6767 107.594 35.2925 107.47 34.5305 107.907C34.4263 107.965 34.2895 108.057 34.1332 108.174C33.9769 108.291 33.8401 108.395 33.7164 108.499L33.3582 108.46L33.5471 105.549L36.1457 104.045V104.865L34.2504 105.959L34.1397 107.444C34.2179 107.386 34.3156 107.308 34.4328 107.216C34.55 107.132 34.6868 107.041 34.8561 106.943L34.8626 106.956Z" fill="#64CED3"/>
<path d="M40.7307 104.279C40.7307 105.276 40.5874 106.096 40.3139 106.741C40.0338 107.386 39.604 107.874 39.0309 108.206C38.4708 108.526 38.0539 108.519 37.7674 108.187C37.4808 107.855 37.3375 107.203 37.3375 106.24C37.3375 105.224 37.4743 104.396 37.7543 103.758C38.0344 103.113 38.4577 102.631 39.0309 102.299C39.591 101.974 40.0143 101.987 40.3009 102.319C40.5874 102.658 40.7307 103.309 40.7307 104.279ZM38.1451 105.771C38.1451 106.552 38.2168 107.073 38.3535 107.327C38.4968 107.581 38.7182 107.62 39.0243 107.444C39.3304 107.269 39.5584 106.969 39.7017 106.546C39.845 106.122 39.9166 105.523 39.9166 104.755C39.9166 103.986 39.845 103.472 39.7017 103.205C39.5584 102.944 39.337 102.898 39.0243 103.081C38.7182 103.257 38.4903 103.556 38.3535 103.973C38.2102 104.39 38.1451 104.989 38.1451 105.777V105.771Z" fill="#64CED3"/>
<path d="M36.7384 123.336L36.0675 123.727V124.977L35.286 125.433V124.182L33 125.505V124.795L35.286 119.682L36.0675 119.233V122.971L36.7384 122.58V123.349V123.336ZM35.2795 123.414V121.975C35.2795 121.46 35.2925 121.037 35.312 120.698L35.286 120.711C35.2209 120.919 35.1232 121.187 34.9864 121.512L33.7425 124.3L35.2795 123.414Z" fill="#64CED3"/>
<path d="M40.7307 119.408C40.7307 120.405 40.5874 121.225 40.3139 121.87C40.0338 122.515 39.604 123.003 39.0309 123.336C38.4708 123.655 38.0539 123.648 37.7674 123.316C37.4808 122.984 37.3375 122.333 37.3375 121.369C37.3375 120.353 37.4743 119.526 37.7543 118.887C38.0344 118.243 38.4577 117.761 39.0309 117.428C39.591 117.103 40.0143 117.116 40.3009 117.448C40.5874 117.787 40.7307 118.438 40.7307 119.408ZM38.1451 120.9C38.1451 121.681 38.2168 122.202 38.3535 122.456C38.4968 122.71 38.7182 122.749 39.0243 122.574C39.3304 122.398 39.5584 122.098 39.7017 121.675C39.845 121.251 39.9166 120.652 39.9166 119.884C39.9166 119.115 39.845 118.601 39.7017 118.334C39.5584 118.073 39.337 118.028 39.0243 118.21C38.7182 118.386 38.4903 118.685 38.3535 119.102C38.2102 119.519 38.1451 120.118 38.1451 120.906V120.9Z" fill="#64CED3"/>
<path d="M36.3737 135.508C36.3737 135.873 36.2825 136.231 36.0936 136.576C35.9113 136.928 35.6508 137.241 35.3121 137.514V137.547C35.7094 137.371 36.0155 137.345 36.2174 137.456C36.4193 137.566 36.517 137.814 36.517 138.198C36.517 138.752 36.3476 139.273 36.009 139.768C35.6703 140.263 35.1884 140.692 34.5566 141.057C34.003 141.376 33.5341 141.546 33.1564 141.559V140.738C33.3713 140.738 33.5927 140.699 33.8337 140.627C34.0747 140.556 34.2961 140.458 34.5175 140.334C34.9083 140.113 35.1949 139.859 35.3838 139.585C35.5726 139.312 35.6703 138.999 35.6703 138.654C35.6703 138.348 35.5661 138.185 35.3512 138.165C35.1428 138.146 34.8041 138.263 34.3547 138.524L33.9184 138.778V138.029L34.3612 137.775C35.1558 137.312 35.5596 136.765 35.5596 136.134C35.5596 135.886 35.488 135.736 35.3512 135.684C35.2144 135.632 35.006 135.684 34.739 135.84C34.5501 135.951 34.3678 136.088 34.1919 136.251C34.0161 136.414 33.8077 136.655 33.5667 136.967L33.1759 136.55C33.6318 135.899 34.1659 135.398 34.7715 135.046C35.273 134.753 35.6703 134.649 35.9504 134.74C36.2304 134.824 36.3737 135.085 36.3737 135.521V135.508Z" fill="#64CED3"/>
<path d="M40.7307 134.538C40.7307 135.534 40.5874 136.355 40.3139 136.999C40.0338 137.644 39.604 138.133 39.0309 138.465C38.4708 138.784 38.0539 138.777 37.7674 138.445C37.4808 138.113 37.3375 137.462 37.3375 136.498C37.3375 135.482 37.4743 134.655 37.7543 134.016C38.0344 133.372 38.4577 132.89 39.0309 132.558C39.591 132.232 40.0143 132.245 40.3009 132.577C40.5874 132.916 40.7307 133.567 40.7307 134.538ZM38.1451 136.029C38.1451 136.81 38.2168 137.331 38.3535 137.585C38.4968 137.839 38.7182 137.879 39.0243 137.703C39.3304 137.527 39.5584 137.227 39.7017 136.804C39.845 136.381 39.9166 135.781 39.9166 135.013C39.9166 134.244 39.845 133.73 39.7017 133.463C39.5584 133.202 39.337 133.157 39.0243 133.339C38.7182 133.515 38.4903 133.815 38.3535 134.231C38.2102 134.648 38.1451 135.247 38.1451 136.035V136.029Z" fill="#64CED3"/>
<path d="M36.5625 154.949L33.1693 156.909V156.212L34.4588 153.978C34.8431 153.314 35.0906 152.852 35.2143 152.591C35.3381 152.331 35.4293 152.103 35.4879 151.907C35.5465 151.712 35.5725 151.516 35.5725 151.328C35.5725 151.067 35.5009 150.904 35.3706 150.833C35.2339 150.761 35.045 150.794 34.8105 150.937C34.6217 151.048 34.4328 151.197 34.257 151.38C34.0746 151.562 33.8727 151.829 33.6382 152.181L33.2019 151.823C33.4819 151.393 33.749 151.048 34.016 150.781C34.2765 150.52 34.5565 150.299 34.8561 150.129C35.3185 149.862 35.6963 149.784 35.9763 149.901C36.2564 150.019 36.3997 150.312 36.3997 150.781C36.3997 151.041 36.3606 151.308 36.2759 151.588C36.1913 151.868 36.0675 152.181 35.9047 152.526C35.7354 152.871 35.4553 153.366 35.0711 154.011L34.2048 155.476V155.515L36.582 154.148V154.962L36.5625 154.949Z" fill="#64CED3"/>
<path d="M40.7307 149.667C40.7307 150.663 40.5874 151.484 40.3139 152.129C40.0338 152.774 39.604 153.262 39.0309 153.594C38.4708 153.913 38.0539 153.907 37.7674 153.575C37.4808 153.242 37.3375 152.591 37.3375 151.627C37.3375 150.611 37.4743 149.784 37.7543 149.146C38.0344 148.501 38.4577 148.019 39.0309 147.687C39.591 147.361 40.0143 147.374 40.3009 147.707C40.5874 148.045 40.7307 148.696 40.7307 149.667ZM38.1451 151.158C38.1451 151.94 38.2168 152.461 38.3535 152.715C38.4968 152.969 38.7182 153.008 39.0243 152.832C39.3304 152.656 39.5584 152.357 39.7017 151.933C39.845 151.51 39.9166 150.911 39.9166 150.142C39.9166 149.374 39.845 148.859 39.7017 148.592C39.5584 148.332 39.337 148.286 39.0243 148.469C38.7182 148.644 38.4903 148.944 38.3535 149.361C38.2102 149.778 38.1451 150.377 38.1451 151.165V151.158Z" fill="#64CED3"/>
<path d="M35.527 170.671L34.7259 171.133V167.427C34.7259 166.984 34.7324 166.626 34.752 166.359C34.6999 166.45 34.6347 166.561 34.5566 166.678C34.4784 166.796 34.2244 167.186 33.7881 167.844L33.3843 167.492L34.8562 165.317L35.527 164.933V170.671Z" fill="#64CED3"/>
<path d="M40.7307 164.796C40.7307 165.793 40.5874 166.613 40.3139 167.258C40.0338 167.903 39.604 168.391 39.0309 168.724C38.4708 169.043 38.0539 169.036 37.7674 168.704C37.4808 168.372 37.3375 167.721 37.3375 166.757C37.3375 165.741 37.4743 164.914 37.7543 164.275C38.0344 163.631 38.4577 163.149 39.0309 162.816C39.591 162.491 40.0143 162.504 40.3009 162.836C40.5874 163.175 40.7307 163.826 40.7307 164.796ZM38.1451 166.288C38.1451 167.069 38.2168 167.59 38.3535 167.844C38.4968 168.098 38.7182 168.137 39.0243 167.962C39.3304 167.786 39.5584 167.486 39.7017 167.063C39.845 166.639 39.9166 166.04 39.9166 165.272C39.9166 164.503 39.845 163.989 39.7017 163.722C39.5584 163.461 39.337 163.416 39.0243 163.598C38.7182 163.774 38.4903 164.073 38.3535 164.49C38.2102 164.907 38.1451 165.506 38.1451 166.294V166.288Z" fill="#64CED3"/>
<path d="M40.7373 179.925C40.7373 180.922 40.594 181.743 40.3205 182.387C40.0404 183.032 39.6106 183.521 39.0374 183.853C38.4839 184.172 38.0605 184.165 37.774 183.833C37.4874 183.501 37.3441 182.85 37.3441 181.886C37.3441 180.87 37.4809 180.043 37.7609 179.404C38.041 178.76 38.4643 178.278 39.0374 177.946C39.5975 177.62 40.0209 177.633 40.3074 177.965C40.594 178.304 40.7373 178.955 40.7373 179.925ZM38.1517 181.417C38.1517 182.198 38.2233 182.719 38.3601 182.973C38.5034 183.227 38.7248 183.267 39.0309 183.091C39.337 182.915 39.565 182.615 39.7083 182.192C39.8515 181.769 39.9232 181.169 39.9232 180.401C39.9232 179.632 39.8515 179.118 39.7083 178.851C39.565 178.59 39.3435 178.545 39.0309 178.727C38.7248 178.903 38.4969 179.203 38.3601 179.619C38.2168 180.036 38.1517 180.635 38.1517 181.423V181.417Z" fill="#64CED3"/>
</g>
<path opacity="0.5" d="M96.0049 156.642L103.82 152.129V91.8199L96.0049 96.3333V156.642ZM84.7442 163.044L92.5596 158.531V72.5225L84.7442 77.0358V163.044ZM73.1514 169.667L80.9668 165.154V101.83L73.1514 106.343V169.667ZM119.184 56.3316V143.011L126.999 138.497V51.8183L119.184 56.3316ZM107.591 149.634L115.407 145.121V72.2359L107.591 76.7493V149.628V149.634ZM61.7801 176.291L69.5954 171.778V126.286L61.7801 130.799V176.291ZM50.6301 182.804L58.4455 178.29V154.245L50.6301 158.759V182.804ZM130.77 136.022L138.586 131.509V38.9424L130.77 43.4558V136.022ZM153.949 66.3483V122.391L161.765 117.878V61.8284L153.949 66.3418V66.3483ZM142.356 129.015L150.172 124.501V29.2644L142.356 33.7778V129.008V129.015Z" fill="url(#paint0_linear_25_62)"/>
<path d="M96.0049 156.642L103.82 152.129V120.529L96.0049 125.042V156.642ZM84.7443 163.044L92.5597 158.531V92.8101L84.7443 97.3234V163.044ZM73.1515 169.668L80.9669 165.154V117.468L73.1515 121.981V169.668ZM119.184 68.0614V143.011L126.999 138.497V63.548L119.184 68.0614ZM107.591 149.634L115.407 145.121V95.9492L107.591 100.463V149.634ZM130.777 136.023L138.592 131.509V43.3713L130.777 47.8847V136.023ZM153.956 89.6579V122.391L161.771 117.878V85.1445L153.956 89.6579ZM142.363 129.015L150.178 124.501V65.4693L142.363 69.9827V129.015ZM61.7866 176.291L69.602 171.778V138.908L61.7866 143.421V176.291ZM50.6367 182.804L58.4521 178.291V161.123L50.6367 165.636V182.804Z" fill="url(#paint1_linear_25_62)"/>
<g style="mix-blend-mode:color-dodge">
<path d="M73.1514 122.958L80.9732 118.445V117.468L73.1514 121.981V122.958Z" fill="#58595B"/>
<path d="M84.7443 98.3004L92.5596 93.787V92.8101L84.7443 97.3234V98.3004Z" fill="#58595B"/>
<path d="M50.6367 166.613L58.4521 162.1V161.123L50.6367 165.636V166.613Z" fill="#58595B"/>
<path d="M96.0049 126.019L103.82 121.506V120.529L96.0049 125.042V126.019Z" fill="#58595B"/>
<path d="M61.7866 144.398L69.602 139.885V138.908L61.7866 143.421V144.398Z" fill="#58595B"/>
<path d="M142.37 70.9598L150.185 66.4464V65.4695L142.37 69.9829V70.9598Z" fill="#58595B"/>
<path d="M130.777 48.8616L138.592 44.3483V43.3713L130.777 47.8847V48.8616Z" fill="#58595B"/>
<path d="M153.956 89.6577V90.6346L161.778 86.1212V85.1443L153.956 89.6577Z" fill="#58595B"/>
<path d="M107.591 101.44L115.413 96.9261V95.9492L107.591 100.463V101.44Z" fill="#58595B"/>
<path d="M119.184 69.0384L126.999 64.525V63.5481L119.184 68.0615V69.0384Z" fill="#58595B"/>
</g>
<circle cx="32.5" cy="46.5" r="15" stroke="#64CED3" stroke-linecap="round" stroke-dasharray="5 5"/>
<circle cx="49" cy="34" r="8.5" stroke="#C6ADFF" stroke-linecap="round"/>
<circle cx="35" cy="20" r="3.5" fill="#A855F7" stroke="#A855F7" stroke-linecap="round"/>
<circle cx="142" cy="153" r="3.5" fill="#64CED3" stroke="#64CED3" stroke-linecap="round"/>
<circle cx="163.5" cy="166.5" r="17.5" fill="#A855F7"/>
<circle cx="140.5" cy="173.5" r="10" stroke="#C6ADFF" stroke-linecap="round"/>
</g>
<defs>
<filter id="filter0_f_25_62" x="-0.881714" y="2.24561" width="215.101" height="205.496" filterUnits="userSpaceOnUse" color-interpolation-filters="sRGB">
<feFlood flood-opacity="0" result="BackgroundImageFix"/>
<feBlend mode="normal" in="SourceGraphic" in2="BackgroundImageFix" result="shape"/>
<feGaussianBlur stdDeviation="40" result="effect1_foregroundBlur_25_62"/>
</filter>
<linearGradient id="paint0_linear_25_62" x1="101.749" y1="109.626" x2="14.0803" y2="-125.167" gradientUnits="userSpaceOnUse">
<stop stop-color="#5513AB"/>
<stop offset="1" stop-color="#11D5DE"/>
</linearGradient>
<linearGradient id="paint1_linear_25_62" x1="111.961" y1="146.495" x2="78.8697" y2="74.5351" gradientUnits="userSpaceOnUse">
<stop stop-color="#5513AB"/>
<stop offset="0.87" stop-color="#11D5DE"/>
<stop offset="0.91" stop-color="#34DBE3"/>
<stop offset="0.99" stop-color="#8FECF0"/>
<stop offset="1" stop-color="#99EEF2"/>
</linearGradient>
<clipPath id="clip0_25_62">
<rect width="200" height="200" fill="white"/>
</clipPath>
</defs>
</svg>
